<?xml version="1.0" standalone="no"?>
<!DOCTYPE svg PUBLIC "-//W3C//DTD SVG 20010904//EN"
 "http://www.w3.org/TR/2001/REC-SVG-20010904/DTD/svg10.dtd">
<svg version="1.0" xmlns="http://www.w3.org/2000/svg"
 width="1558.000000pt" height="928.000000pt" viewBox="0 0 1558.000000 928.000000"
 preserveAspectRatio="xMidYMid meet">

<g transform="translate(0.000000,928.000000) scale(0.100000,-0.100000)"
fill="#000000" stroke="none">
<path d="M13843 8255 c-24 -17 -55 -89 -143 -330 -64 -176 -117 -292 -143
-313 -8 -7 -146 -80 -306 -162 -161 -82 -308 -160 -327 -175 -46 -35 -46 -73
-1 -107 17 -14 166 -94 331 -179 223 -114 304 -161 322 -185 28 -36 65 -125
154 -369 89 -242 101 -262 156 -261 45 2 62 34 150 281 74 210 133 342 163
367 15 13 130 77 256 142 127 65 270 140 319 165 106 55 116 67 94 114 -15 31
-42 48 -270 162 -429 216 -410 204 -446 283 -16 37 -53 130 -81 207 -104 281
-125 329 -147 352 -27 27 -51 29 -81 8z m73 -257 c41 -127 108 -297 152 -389
l40 -84 239 -118 c131 -66 267 -135 302 -154 l65 -36 -305 -153 -305 -152 -42
-91 c-48 -103 -95 -223 -142 -365 -28 -85 -35 -97 -45 -83 -7 10 -41 97 -75
195 -118 331 -113 326 -485 514 -146 73 -265 135 -265 138 0 3 134 73 297 155
241 121 301 156 319 182 29 43 82 170 152 365 31 87 60 158 64 158 3 0 19 -37
34 -82z"/>
<path d="M2787 8023 c-27 -45 -49 -94 -112 -263 -60 -159 -97 -231 -127 -249
-12 -8 -124 -67 -248 -131 -239 -124 -310 -165 -310 -179 0 -14 21 -28 182
-114 l156 -83 -86 -44 c-100 -51 -219 -138 -283 -207 -108 -116 -171 -228
-227 -403 -33 -104 -25 -72 -651 -2465 -242 -924 -505 -1932 -586 -2239 -96
-364 -145 -570 -142 -590 8 -53 63 -171 81 -174 9 -2 108 24 219 57 973 291
2393 479 4312 571 746 36 2200 50 3100 31 2111 -45 4152 -223 5655 -492 398
-71 1064 -212 1138 -240 36 -14 90 -11 123 6 33 17 69 69 69 99 0 10 -63 228
-139 485 -77 256 -266 891 -420 1411 -668 2258 -1012 3412 -1046 3510 -78 225
-154 346 -301 475 -144 126 -279 199 -471 253 l-98 27 -4554 -1 -4554 -2 72
38 c80 42 111 66 111 86 0 23 -61 61 -315 193 -138 71 -258 140 -267 153 -10
13 -51 113 -92 222 -41 110 -86 220 -99 245 -31 61 -58 65 -90 14z m101 -293
c109 -294 84 -266 367 -408 129 -64 235 -119 235 -122 0 -3 -78 -44 -173 -92
-320 -163 -314 -159 -352 -241 -18 -40 -56 -137 -85 -215 -37 -99 -56 -139
-61 -129 -5 8 -27 68 -50 133 -23 66 -61 160 -84 209 l-42 90 -241 120 c-133
66 -242 122 -242 125 0 3 91 51 203 107 111 55 221 115 244 132 57 41 91 105
159 294 36 99 60 154 65 146 4 -8 30 -75 57 -149z m4596 -1127 c-4 -65 -8
-119 -9 -121 -2 -2 -172 -6 -378 -10 -290 -5 -379 -10 -389 -20 -10 -10 -13
-69 -11 -265 4 -459 23 -530 160 -608 l51 -29 634 -5 c348 -2 665 -1 703 4 39
4 108 19 155 31 70 19 93 31 131 67 25 24 61 71 80 106 l33 62 9 275 c10 297
5 350 -35 371 -14 8 -142 13 -385 17 l-363 5 0 119 0 118 2308 -2 2307 -3 75
-23 c111 -34 246 -104 325 -170 74 -62 166 -184 223 -298 106 -211 126 -276
743 -2514 330 -1196 615 -2228 634 -2292 18 -65 31 -118 29 -118 -2 0 -70 16
-151 35 -335 78 -1042 194 -1653 269 -318 40 -1073 113 -1405 136 -360 25
-368 26 -358 45 5 8 41 44 81 80 l73 65 1183 0 c1004 0 1185 2 1195 14 8 9 11
45 9 98 l-3 83 -295 6 c-467 10 -4235 33 -4254 26 -13 -5 -16 -21 -16 -85 0
-47 5 -85 13 -95 11 -15 61 -18 462 -27 248 -5 618 -10 823 -10 204 0 372 -3
372 -6 0 -3 -24 -35 -52 -71 l-53 -65 -105 6 c-308 17 -707 29 -1670 52 -1104
26 -1420 27 -2380 3 -558 -13 -1564 -59 -1659 -75 l-34 -6 33 39 c18 21 67 74
109 118 l76 80 1125 5 c884 5 1130 8 1148 18 21 12 23 18 20 100 l-3 87 -2080
-3 c-1144 -2 -2170 -7 -2280 -10 l-200 -7 2 -84 c2 -47 7 -89 13 -95 8 -8 293
-13 913 -16 l902 -5 -115 -118 c-63 -65 -122 -123 -131 -128 -20 -10 -176 -24
-459 -39 -1038 -57 -2228 -211 -2858 -370 -98 -24 -112 -26 -108 -11 3 9 71
255 151 546 81 292 247 895 370 1340 123 446 339 1229 480 1740 314 1143 320
1162 356 1257 38 96 111 209 175 268 100 93 254 181 340 195 l41 6 43 -118
c50 -139 95 -232 116 -240 35 -13 70 53 144 265 l43 122 2244 0 2244 0 -7
-117z"/>
<path d="M3616 6208 c-7 -13 -30 -69 -51 -125 -20 -56 -42 -109 -49 -118 -7
-9 -75 -49 -152 -89 -123 -63 -139 -74 -142 -98 -3 -26 4 -31 141 -100 163
-81 150 -67 213 -235 40 -108 52 -127 78 -117 21 8 35 35 81 159 20 55 43 106
50 114 7 7 75 45 151 85 188 96 188 93 -5 191 l-150 76 -37 97 c-63 167 -71
182 -93 182 -11 0 -27 -10 -35 -22z m74 -191 l42 -108 131 -66 132 -65 -127
-64 c-147 -74 -141 -66 -214 -274 -3 -8 -23 29 -45 85 -22 55 -45 107 -52 116
-7 9 -66 43 -132 76 l-119 60 114 59 c63 32 124 68 135 80 12 12 36 65 55 117
19 53 36 94 37 94 1 -1 20 -51 43 -110z"/>
<path d="M11079 3155 c-375 -59 -721 -232 -998 -500 -99 -96 -208 -219 -246
-278 -27 -42 -8 -53 105 -61 l95 -7 94 101 c104 113 223 216 321 280 88 57
308 164 400 194 262 86 602 102 879 40 156 -35 263 -74 412 -150 198 -102 338
-216 521 -422 l46 -53 113 3 c71 2 114 7 116 14 6 19 -115 174 -221 283 -298
305 -680 503 -1081 561 -99 14 -453 11 -556 -5z"/>
</g>
</svg>
