<?xml version="1.0" standalone="no"?>
<!DOCTYPE svg PUBLIC "-//W3C//DTD SVG 20010904//EN"
 "http://www.w3.org/TR/2001/REC-SVG-20010904/DTD/svg10.dtd">
<svg version="1.0" xmlns="http://www.w3.org/2000/svg"
 width="1224.000000pt" height="632.000000pt" viewBox="0 0 1224.000000 632.000000"
 preserveAspectRatio="xMidYMid meet">

<g transform="translate(0.000000,632.000000) scale(0.100000,-0.100000)"
fill="#000000" stroke="none">
<path d="M11171 6191 c-11 -28 -47 -123 -80 -213 -62 -174 -99 -255 -126 -279
-10 -8 -137 -75 -284 -149 -355 -180 -354 -153 -14 -325 140 -71 268 -138 284
-147 37 -23 64 -77 143 -296 90 -248 92 -252 131 -252 38 0 38 0 106 193 69
194 117 308 142 336 12 13 142 83 289 157 146 73 269 137 271 141 3 5 3 21 0
37 -5 24 -17 34 -82 64 -42 19 -167 82 -279 140 l-202 105 -30 63 c-17 34 -60
145 -96 246 -77 215 -84 228 -123 228 -25 0 -31 -7 -50 -49z m109 -216 c29
-83 71 -190 94 -240 l43 -90 262 -132 c249 -126 261 -133 234 -143 -15 -6
-133 -64 -262 -128 l-234 -117 -43 -90 c-23 -49 -66 -159 -95 -244 -61 -180
-45 -188 -138 74 -94 262 -70 237 -372 389 l-257 129 262 132 261 133 37 78
c20 44 62 152 93 242 32 89 59 161 61 159 2 -1 26 -70 54 -152z"/>
<path d="M2099 6060 c-9 -5 -49 -98 -89 -206 -40 -108 -83 -207 -94 -220 -12
-12 -126 -75 -254 -139 -130 -65 -231 -122 -230 -129 2 -6 70 -45 151 -86
l146 -75 -78 -37 c-163 -77 -300 -207 -371 -353 -50 -104 -56 -125 -205 -695
-69 -267 -151 -577 -180 -690 -30 -113 -142 -542 -250 -955 -240 -916 -261
-997 -421 -1605 -70 -267 -131 -503 -137 -526 -8 -35 -6 -47 17 -95 14 -31 26
-61 26 -67 0 -23 20 -20 156 24 758 245 2091 419 3744 489 848 36 2173 36
3070 0 985 -40 1760 -96 2565 -186 856 -95 1429 -188 2145 -345 188 -41 275
-66 317 -90 31 -18 31 -18 52 6 23 28 25 47 11 85 -5 14 -100 330 -211 703
-110 372 -297 1003 -415 1402 -119 399 -264 889 -324 1090 -125 422 -246 828
-332 1120 -38 131 -79 243 -111 310 -45 94 -61 115 -146 200 -135 134 -275
210 -462 251 -92 20 -118 21 -1329 20 -679 0 -2367 -3 -3750 -6 l-2515 -5 95
47 c71 36 95 53 95 67 0 16 -49 45 -226 135 -124 64 -231 120 -237 124 -20 14
-47 74 -100 224 -53 146 -87 223 -100 223 -4 0 -14 -5 -23 -10z m69 -236 c27
-78 62 -165 78 -195 l29 -53 207 -105 208 -105 -207 -104 c-114 -57 -213 -112
-220 -121 -17 -23 -56 -118 -104 -254 -23 -65 -45 -115 -49 -110 -4 4 -26 64
-50 133 -23 69 -56 152 -72 185 l-29 61 -211 105 -210 105 209 105 208 105 35
70 c19 39 55 128 79 198 24 69 45 125 47 124 1 -2 25 -67 52 -144z m7990 -850
c214 -37 390 -150 483 -309 42 -73 63 -134 134 -390 35 -126 179 -648 320
-1160 141 -511 285 -1033 320 -1160 35 -126 138 -501 230 -833 91 -332 169
-611 172 -619 7 -19 25 -21 -277 40 -450 92 -1178 199 -1647 243 -40 4 -77 12
-82 18 -4 6 -14 36 -21 66 -7 30 -24 86 -37 124 -12 38 -23 71 -23 72 0 2 51
5 113 6 l112 3 3 71 3 71 -943 6 c-519 4 -1362 10 -1873 14 l-930 6 0 -74 1
-74 330 -6 c181 -3 330 -7 331 -8 1 0 -8 -26 -20 -57 l-22 -55 -635 1 c-623 0
-1213 -10 -1700 -30 -345 -14 -806 -39 -864 -46 l-50 -6 41 48 c23 27 64 71
92 99 28 27 51 55 51 62 0 11 175 13 913 13 501 0 929 3 950 6 l37 7 0 68 0
69 -853 0 c-470 0 -1313 -3 -1875 -7 l-1022 -6 4 -56 c2 -31 5 -64 5 -74 1
-16 42 -17 752 -17 414 0 754 -2 757 -4 2 -3 -36 -45 -84 -94 -49 -49 -98
-100 -109 -114 -20 -22 -32 -24 -185 -36 -1016 -80 -2058 -245 -2643 -420 -94
-28 -97 -29 -82 -8 21 29 20 25 65 191 23 83 77 278 120 435 43 157 108 391
143 520 36 129 145 523 242 875 97 352 187 678 200 725 25 89 267 968 336
1220 57 208 108 307 203 398 83 79 231 160 300 165 l38 2 42 -115 c80 -219 95
-228 148 -87 19 50 46 122 58 160 l24 67 1859 0 1860 0 -7 -61 c-3 -34 -6 -83
-6 -110 l0 -48 -264 -3 c-145 -2 -268 -7 -273 -11 -10 -11 -6 -337 7 -487 12
-138 34 -179 115 -220 l50 -25 490 -3 c462 -3 495 -2 578 18 48 11 100 26 116
34 32 17 67 61 102 126 23 43 24 54 27 295 3 228 2 250 -14 262 -14 10 -91 13
-325 13 l-307 0 -4 63 c-1 34 -2 83 0 109 l3 48 1712 2 c942 2 1800 4 1907 5
131 1 222 -3 278 -13z m-3400 -531 c-4 -182 -11 -210 -63 -252 -48 -37 -109
-40 -597 -33 l-466 7 -26 24 c-14 13 -30 38 -35 55 -13 43 -22 233 -14 306 l6
60 599 0 600 0 -4 -167z m836 -3375 c-4 -7 -28 -37 -53 -67 l-45 -53 -246 7
c-135 4 -246 8 -248 10 -1 1 7 27 19 59 l22 56 279 0 c221 0 278 -3 272 -12z
m1973 -14 c14 -20 73 -200 73 -226 0 -17 -5 -19 -37 -14 -125 20 -1043 86
-1486 107 -172 9 -256 16 -254 23 2 6 35 38 74 72 l69 61 775 -4 c685 -3 775
-5 786 -19z"/>
<path d="M2807 4537 c-8 -13 -54 -131 -102 -263 -87 -238 -131 -341 -157 -361
-7 -6 -160 -86 -340 -178 l-328 -167 0 -38 0 -39 188 -94 c257 -129 464 -237
480 -250 25 -20 70 -122 150 -343 44 -122 90 -240 101 -263 19 -36 26 -41 56
-41 30 0 37 5 56 41 11 23 45 110 74 193 99 280 142 381 176 412 21 19 259
143 507 264 l162 79 0 40 0 41 -197 99 c-290 145 -456 231 -471 244 -26 21
-75 133 -149 337 -40 113 -84 229 -98 258 -23 48 -28 52 -59 52 -24 0 -38 -6
-49 -23z m124 -317 c33 -96 82 -220 108 -275 l48 -100 302 -152 c166 -84 308
-153 316 -153 8 0 15 -4 15 -10 0 -5 -7 -10 -15 -10 -8 0 -150 -68 -315 -151
l-301 -151 -39 -79 c-37 -73 -117 -281 -170 -442 -12 -38 -24 -67 -26 -65 -1
2 -37 100 -79 218 -42 118 -95 249 -116 291 l-39 75 -300 152 c-165 84 -306
152 -315 152 -8 0 -15 5 -15 10 0 6 7 10 15 10 18 0 583 286 609 309 30 25 96
177 171 390 51 144 71 189 77 175 4 -10 35 -98 69 -194z"/>
<path d="M8060 2025 c-311 -51 -595 -194 -824 -414 -75 -73 -206 -230 -206
-247 0 -5 40 -10 88 -12 l88 -3 41 49 c70 82 166 171 254 234 106 76 297 169
413 202 520 148 1084 -18 1426 -420 l63 -74 94 0 95 0 -41 58 c-218 307 -561
533 -936 614 -120 26 -432 34 -555 13z"/>
</g>
</svg>
